<?xml version="1.0" standalone="no"?>
<!DOCTYPE svg PUBLIC "-//W3C//DTD SVG 1.1//EN" "http://www.w3.org/Graphics/SVG/1.1/DTD/svg11.dtd" >
<svg xmlns="http://www.w3.org/2000/svg" xmlns:xlink="http://www.w3.org/1999/xlink" version="1.1">
<metadata></metadata>
<defs>
<font id="sofia_proultralight" horiz-adv-x="1284" >
<font-face units-per-em="2048" ascent="1536" descent="-512" />
<missing-glyph horiz-adv-x="561" />
<glyph unicode="&#xfb01;" horiz-adv-x="1124" d="M61 901v55h197v162q0 88 16.5 158.5t53 126.5t100 86.5t150.5 30.5h69v-62h-69q-71 0 -122.5 -26t-80.5 -74t-42.5 -107t-13.5 -133v-162h631v-956h-61v901h-570v-901h-61v901h-197zM856 1309q0 26 18.5 42.5t45.5 16.5q29 0 47 -16.5t18 -42.5q0 -25 -18 -41.5 t-47 -16.5q-26 0 -45 16.5t-19 41.5z" />
<glyph unicode="&#xfb02;" horiz-adv-x="1095" d="M61 901v55h197v162q0 88 16.5 158.5t53 126.5t100 86.5t150.5 30.5h340v-1520h-62v1458h-278q-71 0 -122.5 -26t-80.5 -74t-42.5 -107t-13.5 -133v-162h271v-55h-271v-901h-61v901h-197z" />
<glyph unicode="&#xfb03;" horiz-adv-x="1800" d="M61 901v55h197v162q0 88 16.5 158.5t53 126.5t100 86.5t150.5 30.5h69v-62h-69q-71 0 -122.5 -26t-80.5 -74t-42.5 -107t-13.5 -133v-162h615v162q0 88 16.5 158.5t52.5 126.5t99.5 86.5t150.5 30.5h70v-62h-70q-71 0 -122.5 -26t-80 -74t-42 -107t-13.5 -133v-162h631 v-956h-61v901h-570v-901h-61v901h-615v-901h-61v901h-197zM1532 1309q0 26 18 42.5t45 16.5q29 0 47.5 -16.5t18.5 -42.5q0 -25 -18.5 -41.5t-47.5 -16.5q-26 0 -44.5 16.5t-18.5 41.5z" />
<glyph unicode="&#xfb04;" horiz-adv-x="1771" d="M61 901v55h197v162q0 88 16.5 158.5t53 126.5t100 86.5t150.5 30.5h69v-62h-69q-71 0 -122.5 -26t-80.5 -74t-42.5 -107t-13.5 -133v-162h615v162q0 88 16.5 158.5t52.5 126.5t99.5 86.5t150.5 30.5h340v-1520h-61v1458h-279q-71 0 -122.5 -26t-80 -74t-42 -107 t-13.5 -133v-162h271v-55h-271v-901h-61v901h-615v-901h-61v901h-197z" />
<glyph horiz-adv-x="0" />
<glyph horiz-adv-x="682" />
<glyph unicode=" "  horiz-adv-x="561" />
<glyph unicode="&#x09;" horiz-adv-x="561" />
<glyph unicode="&#xa0;" horiz-adv-x="561" />
<glyph unicode="!" horiz-adv-x="479" d="M176 49q0 26 18.5 43t45.5 17q29 0 47 -17t18 -43q0 -25 -18 -41t-47 -16q-27 0 -45.5 16.5t-18.5 40.5zM209 317v1094h61v-1094h-61z" />
<glyph unicode="&#x22;" horiz-adv-x="585" d="M170 905v506h61v-506h-61zM354 905v506h62v-506h-62z" />
<glyph unicode="#" horiz-adv-x="1488" d="M88 373l16 61h295l148 535h-295l16 61h297l105 381h61l-106 -381h424l104 381h61l-106 -381h295l-17 -61h-294l-148 -535h295l-16 -61h-295l-103 -373h-61l102 373h-422l-102 -373h-61l102 373h-295zM461 434h422l147 535h-422z" />
<glyph unicode="$" horiz-adv-x="1116" d="M109 340h61q18 -122 122.5 -210.5t256.5 -88.5q172 0 277 82.5t130 195.5q12 77 -8.5 140t-67 106t-106.5 71.5t-135 45.5l-201 47q-319 67 -319 334q0 103 60 186.5t154.5 129t201.5 48.5v205h61v-207q154 -12 258.5 -104.5t116.5 -237.5h-62q-12 128 -114.5 205.5 t-247.5 77.5q-94 0 -178 -38t-136.5 -108.5t-52.5 -156.5q0 -213 271 -275l200 -47q87 -19 156 -52.5t123 -84.5t77 -127t9 -170q-10 -56 -42 -110t-83 -100.5t-127.5 -77.5t-167.5 -37v-234h-61v232q-87 2 -164 33.5t-131 82t-88 114t-43 130.5z" />
<glyph unicode="%" horiz-adv-x="1335" d="M86 1130q0 103 71 175.5t175 72.5q103 0 175.5 -72.5t72.5 -175.5q0 -104 -72.5 -174.5t-175.5 -70.5q-104 0 -175 70.5t-71 174.5zM147 1130q0 -78 53.5 -131t131.5 -53t132 53t54 131t-54 132.5t-132 54.5t-131.5 -54.5t-53.5 -132.5zM289 0l663 1360h66l-660 -1360 h-69zM760 227q0 103 71 175.5t175 72.5q103 0 175 -72.5t72 -175.5q0 -104 -72 -174.5t-175 -70.5q-104 0 -175 70.5t-71 174.5zM821 227q0 -78 53.5 -131t131.5 -53t132 53t54 131t-54 132.5t-132 54.5t-131.5 -54.5t-53.5 -132.5z" />
<glyph unicode="&#x26;" horiz-adv-x="1347" d="M123 414q0 81 33 161.5t99.5 148t152.5 95.5q-77 46 -120.5 126t-43.5 161q0 134 98 227.5t242 93.5q186 0 284 -131l-49 -36q-79 106 -235 106q-117 0 -198 -76.5t-81 -183.5q0 -113 76.5 -187.5t193.5 -74.5h379v186h62v-188h196v-56h-196v-372q0 -65 4.5 -113.5 t19 -97.5t40 -81t68.5 -54t103 -27v-61q-105 0 -183 62.5t-97 186.5q-21 -65 -66.5 -115t-103 -79t-117 -43.5t-117.5 -14.5q-194 0 -319 126.5t-125 310.5zM184 414q0 -158 108.5 -266.5t276.5 -108.5q164 0 272 102t113 256v389h-383q-164 0 -275.5 -109t-111.5 -263z" />
<glyph unicode="'" horiz-adv-x="401" d="M170 905v506h61v-506h-61z" />
<glyph unicode="(" horiz-adv-x="686" d="M121 473q0 433 131 682t356 270v-61q-193 -15 -311 -248q-115 -233 -115 -643t115 -643q118 -233 311 -248v-61q-224 17 -355.5 268t-131.5 684z" />
<glyph unicode=")" horiz-adv-x="686" d="M78 -418q194 15 309 248q117 231 117 643t-117 643q-115 233 -309 248v61q225 -21 356 -270t131 -682t-131.5 -684t-355.5 -268v61z" />
<glyph unicode="*" horiz-adv-x="933" d="M131 1159l23 66l292 -115l-18 317h74l-21 -317l301 115l19 -64l-305 -82l198 -252l-14 -10l-37 -24l-168 260l-184 -267l-55 41l200 246z" />
<glyph unicode="+" horiz-adv-x="1060" d="M129 500v61h371v369h61v-369h371v-61h-371v-373h-61v373h-371z" />
<glyph unicode="," horiz-adv-x="454" d="M84 -270q125 176 117 391h61q1 -129 -33 -225t-98 -185z" />
<glyph unicode="-" horiz-adv-x="972" d="M158 430v62h657v-62h-657z" />
<glyph unicode="." horiz-adv-x="444" d="M158 37q0 26 18 42.5t45 16.5q29 0 47.5 -16.5t18.5 -42.5q0 -25 -18.5 -41t-47.5 -16q-27 0 -45 16t-18 41z" />
<glyph unicode="/" horiz-adv-x="911" d="M80 0l684 1411h67l-684 -1411h-67z" />
<glyph unicode="0" horiz-adv-x="1245" d="M150 678q0 123 12.5 222.5t45.5 191t85.5 153t136 97.5t193.5 36t193 -36t135 -97.5t84 -153t44.5 -190.5t12.5 -223q0 -122 -12.5 -221t-44.5 -190.5t-84 -152.5t-135 -97.5t-193 -36.5t-193.5 36.5t-136 98t-85.5 152.5t-45.5 190t-12.5 221zM211 678q0 -111 11 -201.5 t39.5 -173.5t74.5 -139t118.5 -89.5t168.5 -33.5t168 33.5t117 89.5t73 139.5t38.5 173.5t10.5 201q0 113 -10.5 203t-38.5 174t-73 140t-117 89t-168 33t-168.5 -33t-118.5 -89t-74.5 -139.5t-39.5 -174.5t-11 -203z" />
<glyph unicode="1" horiz-adv-x="610" d="M86 1171v66l305 113v-1350h-61v1262z" />
<glyph unicode="2" horiz-adv-x="1034" d="M121 1110q35 124 140 196t247 72q167 0 276 -104.5t109 -267.5q0 -174 -148 -342l-509 -603h667v-61h-780v23l575 679q133 150 133 304q0 138 -91 224.5t-232 86.5q-120 0 -209.5 -60t-118.5 -163z" />
<glyph unicode="3" horiz-adv-x="1118" d="M113 233l8 5q13 4 18 8l29 12q42 -89 130.5 -147t203.5 -68q167 -8 284.5 81t137.5 238q0 158 -93.5 247t-224.5 89h-137v62h137q90 0 170.5 66.5t91.5 170.5q13 124 -70.5 217t-236.5 105q-95 7 -189 -41t-136 -123l-54 31q54 95 157.5 147t225.5 45 q186 -12 284.5 -122.5t80.5 -262.5q-6 -82 -59 -153.5t-134 -106.5q77 -19 136.5 -79.5t88 -139.5t23.5 -158q-11 -111 -80 -199.5t-177 -135.5t-230 -39q-132 10 -234.5 78t-150.5 173z" />
<glyph unicode="4" horiz-adv-x="1140" d="M61 297l734 1063h43v-1002h217v-61h-217v-297h-62v297h-715zM174 358h602v881z" />
<glyph unicode="5" horiz-adv-x="1118" d="M111 238l53 30q54 -96 161.5 -159.5t215.5 -63.5q188 0 295.5 104t107.5 263q0 108 -56.5 189.5t-138.5 120t-171 38.5q-102 0 -183.5 -22t-204.5 -79l-24 33l119 668h628v-62h-577l-103 -561q99 44 175.5 64t169.5 20q77 0 152 -27t137 -76.5t100.5 -129.5t38.5 -176 q0 -186 -124.5 -307t-340.5 -121q-122 0 -245 73.5t-185 180.5z" />
<glyph unicode="6" horiz-adv-x="1128" d="M154.5 575.5q-2.5 70.5 1 175t18 184.5t47 167.5t82.5 144.5t130 94t183 37q249 0 355 -235l-56 -25q-89 199 -301 199q-78 0 -140 -24.5t-103 -62t-70.5 -97t-45.5 -115.5t-25 -132t-11 -132t-2 -129v-54q39 128 149 193.5t240 60.5q116 -5 207.5 -63.5t141 -157.5 t46.5 -221q-8 -177 -130.5 -292t-299.5 -111q-169 4 -279.5 124t-127.5 312q-7 89 -9.5 159.5zM225 418q0 -160 99.5 -266t248.5 -111q150 -4 254.5 94.5t112.5 251.5q5 157 -89.5 263.5t-246.5 113.5q-100 3 -185.5 -40t-138 -124t-55.5 -182z" />
<glyph unicode="7" horiz-adv-x="1009" d="M119 1298v62h846l-750 -1360h-70l717 1298h-743z" />
<glyph unicode="8" horiz-adv-x="1142" d="M125 399q0 135 79.5 241t211.5 151q-80 37 -127 110.5t-47 165.5q0 130 93.5 220.5t233.5 90.5q142 0 239 -90.5t97 -220.5q0 -92 -49.5 -166.5t-134.5 -112.5q134 -46 215.5 -151t81.5 -238q0 -177 -129.5 -298t-319.5 -121t-317 120.5t-127 298.5zM186 399 q0 -153 109 -255.5t274 -102.5q164 0 275.5 103t111.5 255q0 93 -49 174.5t-136 131.5t-191 53h-27q-102 -3 -187 -53t-132.5 -131.5t-47.5 -174.5zM303 1067q0 -104 72.5 -176.5t181.5 -77.5h23q114 4 189 77t75 177t-80 177t-195 73q-113 0 -189.5 -72.5t-76.5 -177.5z " />
<glyph unicode="9" horiz-adv-x="1128" d="M127 975q8 177 130.5 292t299.5 111q169 -4 280 -124t128 -312q5 -67 7.5 -121.5t2.5 -133.5t-5 -143t-19 -139.5t-36 -133.5t-58 -114.5t-83 -94t-114 -60t-148 -22.5q-254 0 -354 235l55 25q89 -199 301 -199q78 0 140 24.5t103 62t70.5 97t45.5 115.5t25 132t11 132 t2 129v45q-26 -82 -88.5 -140t-140 -83.5t-160.5 -22.5q-116 5 -207.5 63.5t-141 158t-46.5 221.5zM188 971q-5 -155 90 -264t246 -113q100 -3 185.5 40t138 124t55.5 182q0 160 -99.5 266t-248.5 111q-150 4 -254.5 -94.5t-112.5 -251.5z" />
<glyph unicode=":" horiz-adv-x="444" d="M158 37q0 26 18 42.5t45 16.5q29 0 47.5 -16.5t18.5 -42.5q0 -25 -18.5 -41t-47.5 -16q-27 0 -45 16t-18 41zM158 918q0 26 18 42.5t45 16.5q29 0 47.5 -16.5t18.5 -42.5q0 -25 -18.5 -41.5t-47.5 -16.5q-26 0 -44.5 16.5t-18.5 41.5z" />
<glyph unicode=";" horiz-adv-x="530" d="M139 -270q125 176 117 391h61q1 -129 -33 -225t-98 -185zM221 918q0 26 18.5 42.5t45.5 16.5q29 0 47 -16.5t18 -42.5q0 -25 -18 -41.5t-47 -16.5q-26 0 -45 16.5t-19 41.5z" />
<glyph unicode="&#x3c;" horiz-adv-x="1306" d="M109 481v74l1042 399v-65l-969 -373l969 -369v-65z" />
<glyph unicode="=" horiz-adv-x="1245" d="M166 254v61h913v-61h-913zM166 690v62h913v-62h-913z" />
<glyph unicode="&#x3e;" horiz-adv-x="1306" d="M156 82v65l968 369l-968 373v65l1042 -399v-74z" />
<glyph unicode="?" horiz-adv-x="968" d="M98 1090q12 151 120.5 243t258.5 92q163 0 281.5 -105t118.5 -271q0 -136 -79 -232t-200 -135q-56 -17 -88.5 -32t-65.5 -41t-48 -66.5t-15 -98.5v-127h-62v127q0 59 13.5 104.5t34 75t56.5 53t70.5 36.5t86.5 28q101 29 168 112.5t67 195.5q0 138 -100.5 226.5 t-237.5 88.5q-127 0 -216 -76.5t-101 -204.5zM287 49q0 26 18 43t45 17q29 0 47.5 -17t18.5 -43q0 -25 -18.5 -41t-47.5 -16q-27 0 -45 16t-18 41z" />
<glyph unicode="@" horiz-adv-x="2058" d="M115 506q0 188 70.5 358t191 293.5t289 196.5t356.5 73q151 0 293.5 -42.5t260 -122t206.5 -187t138.5 -244.5t49.5 -286q0 -76 -11 -152.5t-38.5 -154.5t-68 -137t-105 -96.5t-143.5 -37.5q-53 0 -98 13t-84 41.5t-61 81.5t-22 126v289q0 141 -99.5 240.5t-240.5 99.5 t-240.5 -99.5t-99.5 -240.5t99.5 -240.5t240.5 -99.5q50 0 106 17t93 47v-68q-89 -57 -199 -57q-164 0 -282.5 118.5t-118.5 282.5q0 168 118 285t283 117t283.5 -117t118.5 -285v-289q0 -55 17 -95.5t46.5 -62.5t64 -32t75.5 -10q66 0 119.5 33.5t87 86t56.5 122t32.5 138 t9.5 136.5q0 174 -72 328t-192.5 261.5t-283 169.5t-339.5 62q-175 0 -332 -68t-269.5 -183.5t-178.5 -274.5t-66 -334t65.5 -332.5t177 -272t268 -182t331.5 -67.5h69v-62h-69q-250 0 -457.5 122.5t-326.5 332.5t-119 461z" />
<glyph unicode="A" horiz-adv-x="1265" d="M59 0l541 1411h66l538 -1411h-65l-150 393h-713l-151 -393h-66zM297 449h672l-336 876z" />
<glyph unicode="B" horiz-adv-x="1265" d="M217 0v1413h488q166 0 264 -86t98 -246q0 -109 -46 -198.5t-134 -128.5q76 -26 136.5 -90.5t92 -140t31.5 -146.5q0 -101 -45 -186t-133.5 -138t-202.5 -53h-549zM279 61h487q143 0 231 93t88 223q0 115 -79.5 219t-204.5 123q-23 2 -64 2h-458v-660zM279 778h479 q25 0 39 2q102 21 155.5 105.5t53.5 195.5q0 131 -81.5 201t-219.5 70h-426v-574z" />
<glyph unicode="C" horiz-adv-x="1345" d="M119 702q0 147 54 281t146.5 231.5t221.5 155t272 57.5q260 0 459 -176l-41 -45q-184 160 -418 160q-130 0 -247.5 -52.5t-202 -141.5t-134 -212t-49.5 -258t49.5 -257t134 -210.5t202 -141t247.5 -52.5q234 0 416 158l41 -45q-196 -174 -457 -174q-143 0 -272 57 t-221.5 153.5t-146.5 230t-54 281.5z" />
<glyph unicode="D" horiz-adv-x="1482" d="M217 0v1411h520q145 0 263 -54.5t195.5 -150t119 -224.5t41.5 -280q0 -202 -71.5 -359.5t-213 -250t-334.5 -92.5h-520zM279 61h458q174 0 301.5 84.5t191.5 228.5t64 328q0 186 -64 331.5t-191.5 231t-301.5 85.5h-458v-1289z" />
<glyph unicode="E" horiz-adv-x="1122" d="M217 0v1411h766v-61h-704v-627h616v-61h-616v-601h729v-61h-791z" />
<glyph unicode="F" horiz-adv-x="1046" d="M217 0v1411h756v-61h-694v-627h550v-61h-550v-662h-62z" />
<glyph unicode="G" horiz-adv-x="1562" d="M119 702q0 147 54.5 281t148.5 231.5t226 155t279 57.5q228 0 416 -135l-37 -49q-168 123 -379 123q-179 0 -328 -89t-234 -241.5t-85 -333.5t85 -333.5t234 -241t328 -88.5q250 0 405 142t181 409h-446v61h512q-5 -223 -88 -376t-226 -225.5t-338 -72.5 q-148 0 -279.5 57t-225.5 154t-148.5 231t-54.5 283z" />
<glyph unicode="H" horiz-adv-x="1458" d="M217 0v1411h62v-680h901v680h61v-1411h-61v674h-901v-674h-62z" />
<glyph unicode="I" horiz-adv-x="495" d="M217 0v1411h62v-1411h-62z" />
<glyph unicode="J" horiz-adv-x="495" d="M-215 -471l8 61q47 -6 82 -6q91 0 158.5 29t106.5 81t58 117.5t19 145.5v1454h62v-1454q0 -93 -22 -169t-68.5 -136.5t-126.5 -94.5t-187 -34q-43 0 -90 6z" />
<glyph unicode="K" horiz-adv-x="1060" d="M217 0v1411h62v-727l606 727h80l-627 -749l715 -662h-86l-688 635v-635h-62z" />
<glyph unicode="L" horiz-adv-x="972" d="M217 0v1411h62v-1350h632v-61h-694z" />
<glyph unicode="M" horiz-adv-x="1957" d="M135 0l180 1411h66l600 -1225l598 1225h63l181 -1411h-62l-166 1315l-581 -1182h-68l-584 1186l-167 -1319h-60z" />
<glyph unicode="N" horiz-adv-x="1402" d="M217 0v1411h74l833 -1325v1325h62v-1411h-74l-833 1319v-1319h-62z" />
<glyph unicode="O" horiz-adv-x="1656" d="M119 702q0 197 93.5 363.5t256.5 264t358 97.5q147 0 279 -57.5t226.5 -155t150 -231.5t55.5 -281q0 -148 -55.5 -281.5t-150 -230t-226.5 -153.5t-279 -57q-146 0 -277.5 57t-226 153.5t-149.5 230t-55 281.5zM180 702q0 -135 50.5 -257t136.5 -210.5t206.5 -141 t253.5 -52.5q134 0 255 52.5t207.5 141t137 210.5t50.5 257q0 181 -85.5 333.5t-235.5 241.5t-329 89q-178 0 -327 -89t-234.5 -241.5t-85.5 -333.5z" />
<glyph unicode="P" horiz-adv-x="1224" d="M217 0v1411h545q100 0 175.5 -34.5t119 -94t65 -132t21.5 -155.5t-21.5 -154.5t-66 -130.5t-122 -93.5t-181.5 -34.5h-473v-582h-62zM279 643h473q70 0 126.5 19.5t94 52.5t62.5 78.5t35.5 95.5t10.5 106q0 70 -18 131.5t-54.5 113t-100 81t-146.5 29.5h-483v-707z" />
<glyph unicode="Q" horiz-adv-x="1656" d="M119 702q0 197 93.5 363.5t256.5 264t358 97.5q147 0 279 -57.5t226.5 -155t150 -231.5t55.5 -281q0 -208 -101 -376.5t-274 -262.5l172 -268l-53 -33l-174 273q-138 -55 -281 -55q-146 0 -277.5 57t-226 153.5t-149.5 230t-55 281.5zM180 702q0 -135 50.5 -257 t136.5 -210.5t206.5 -141t253.5 -52.5q128 0 246 47l-172 272l53 33l176 -278q157 83 252 241t95 346q0 181 -85.5 333.5t-235.5 241.5t-329 89q-178 0 -327 -89t-234.5 -241.5t-85.5 -333.5z" />
<glyph unicode="R" horiz-adv-x="1230" d="M217 0v1411h516q100 0 175.5 -34.5t119 -94t65 -132t21.5 -155.5t-21.5 -154.5t-66 -130.5t-122 -93.5t-181.5 -34.5h-55l411 -582h-73l-414 582h-313v-582h-62zM279 643h444q87 0 153 29t103.5 80t55.5 111.5t18 131.5q0 70 -18 131.5t-55 113t-100.5 81t-146.5 29.5 h-454v-707z" />
<glyph unicode="S" horiz-adv-x="1144" d="M123 340h61q18 -122 122.5 -210.5t256.5 -88.5q89 0 163.5 24.5t123.5 65t79.5 88.5t41.5 100q4 28 4 55q-1 45 -13 85q-20 63 -67 106t-107 71.5t-135 45.5l-200 47q-320 67 -320 334q0 105 61.5 189.5t159 129.5t207.5 45q173 0 292.5 -93.5t131.5 -250.5h-61 q-12 128 -114.5 205.5t-248.5 77.5q-94 0 -177.5 -38t-136 -108.5t-52.5 -156.5q0 -213 270 -275l201 -47q69 -15 126.5 -38.5t108 -60.5t82.5 -84t45 -111q7 -35 7 -73q0 -32 -5 -67q-13 -61 -47.5 -117.5t-90.5 -104.5t-141.5 -76.5t-187.5 -28.5q-91 0 -170.5 30.5 t-135 81.5t-90.5 115t-44 133z" />
<glyph unicode="T" horiz-adv-x="1128" d="M55 1350v61h1018v-61h-479v-1350h-62v1350h-477z" />
<glyph unicode="U" horiz-adv-x="1380" d="M203 463v948h61v-948q0 -124 58 -221.5t155 -150t213 -52.5t213 52.5t155 150t58 221.5v948h62v-948q0 -143 -66.5 -255t-177.5 -171.5t-244 -59.5t-243.5 59.5t-177 171.5t-66.5 255z" />
<glyph unicode="V" horiz-adv-x="1103" d="M84 1411h66l403 -1343l401 1343h66l-422 -1411h-90z" />
<glyph unicode="W" horiz-adv-x="1892" d="M68 1411h63l451 -1327l323 1102h82l322 -1104l450 1329h66l-479 -1411h-76l-324 1104l-323 -1104h-76z" />
<glyph unicode="X" horiz-adv-x="1157" d="M29 0l512 764l-435 647h74l398 -598l397 598h76l-437 -647l514 -764h-75l-475 715l-476 -715h-73z" />
<glyph unicode="Y" horiz-adv-x="1214" d="M49 1411h74l483 -676l488 676h73l-530 -735v-676h-62v678z" />
<glyph unicode="Z" horiz-adv-x="1071" d="M82 0v33l825 1317h-825v61h907v-41l-819 -1309h819v-61h-907z" />
<glyph unicode="[" horiz-adv-x="559" d="M197 -463v1874h272v-61h-211v-1751h211v-62h-272z" />
<glyph unicode="\" horiz-adv-x="911" d="M80 1411h67l684 -1411h-67z" />
<glyph unicode="]" horiz-adv-x="559" d="M90 -401h211v1751h-211v61h272v-1874h-272v62z" />
<glyph unicode="_" horiz-adv-x="1345" d="M156 -57h1034v-62h-1034v62z" />
<glyph unicode="`" horiz-adv-x="862" d="M264 1362h74l162 -260h-56z" />
<glyph unicode="a" d="M109 479q0 135 66.5 249.5t181 181.5t249.5 67q141 0 257.5 -70t180.5 -188v237h62v-956h-62v238q-64 -118 -180.5 -188t-257.5 -70q-135 0 -249.5 66t-181 181t-66.5 252zM170 479q0 -118 59 -219t159.5 -160t217.5 -59q179 0 304.5 121t133.5 299v18q0 117 -59 217.5 t-160 159.5t-219 59q-117 0 -217.5 -59t-159.5 -159.5t-59 -217.5z" />
<glyph unicode="b" d="M178 0v1520h62v-801q64 118 180.5 188t257.5 70q135 0 249.5 -67t181.5 -181.5t67 -249.5q0 -208 -146 -353.5t-352 -145.5q-141 0 -257.5 70t-180.5 188v-238h-62zM240 461q3 -116 62.5 -212.5t159.5 -152t216 -55.5q117 0 217.5 59t159.5 160t59 219q0 117 -59 217.5 t-159.5 159.5t-217.5 59q-118 0 -219 -59t-160 -159.5t-59 -217.5v-18z" />
<glyph unicode="c" horiz-adv-x="1021" d="M109 481q0 147 68 261.5t180.5 174.5t248.5 60q168 0 312 -103l-35 -49q-124 90 -277 90q-183 0 -309.5 -120.5t-126.5 -313.5q0 -195 126.5 -317.5t309.5 -122.5q151 0 277 90l37 -49q-136 -102 -314 -102q-135 0 -248 61t-181 177t-68 263z" />
<glyph unicode="d" d="M109 479q0 135 66.5 249.5t181 181.5t249.5 67q141 0 257.5 -70t180.5 -188v801h62v-1520h-62v238q-64 -118 -180.5 -188t-257.5 -70q-135 0 -249.5 66t-181 181t-66.5 252zM170 479q0 -118 59 -219t159.5 -160t217.5 -59q179 0 304.5 121t133.5 299v18q0 117 -59 217.5 t-160 159.5t-219 59q-117 0 -217.5 -59t-159.5 -159.5t-59 -217.5z" />
<glyph unicode="e" horiz-adv-x="1150" d="M111 481q0 148 64.5 262t173.5 174t243 60q205 0 336 -136t131 -360v-26h-887q7 -185 128 -299.5t292 -114.5q115 0 208 51t150 144l54 -33q-66 -105 -174 -164t-238 -59q-205 0 -343 139t-138 362zM172 510h825q-7 184 -120 294.5t-285 110.5q-173 0 -290.5 -111 t-129.5 -294z" />
<glyph unicode="f" horiz-adv-x="632" d="M61 901v55h197v162q0 88 16.5 158.5t53 126.5t100 86.5t150.5 30.5h69v-62h-69q-71 0 -122.5 -26t-80.5 -74t-42.5 -107t-13.5 -133v-162h271v-55h-271v-901h-61v901h-197z" />
<glyph unicode="g" d="M109 479q0 135 66.5 249.5t181 181.5t249.5 67q141 0 257.5 -70t180.5 -188v237h62v-819q0 -141 -25 -247.5t-68.5 -175.5t-109 -112.5t-141 -61t-170.5 -17.5q-115 0 -217.5 51t-173.5 152l51 34q126 -176 340 -176q83 0 149.5 15.5t124.5 54.5t96 101t60 158t22 224 v101q-64 -118 -180.5 -188t-257.5 -70q-135 0 -249.5 66t-181 181t-66.5 252zM170 479q0 -118 59 -219t159.5 -160t217.5 -59q179 0 304.5 121t133.5 299v18q0 117 -59 217.5t-160 159.5t-219 59q-117 0 -217.5 -59t-159.5 -159.5t-59 -217.5z" />
<glyph unicode="h" horiz-adv-x="1150" d="M178 0v1520h62v-775q26 81 84.5 135t126 75.5t143.5 21.5q170 0 280.5 -113t110.5 -301v-563h-61v563q0 161 -93.5 256.5t-236.5 95.5q-70 0 -130 -20t-111 -62t-81 -115t-32 -171v-547h-62z" />
<glyph unicode="i" horiz-adv-x="417" d="M145 1309q0 26 18.5 42.5t45.5 16.5q29 0 47 -16.5t18 -42.5q0 -25 -18 -41.5t-47 -16.5q-26 0 -45 16.5t-19 41.5zM178 0v956h62v-956h-62z" />
<glyph unicode="j" horiz-adv-x="417" d="M-150 -410h70q71 0 122.5 26t80 74t42 107t13.5 133v1026h62v-1026q0 -88 -16.5 -158t-53 -126t-100 -86.5t-150.5 -30.5h-70v61zM145 1309q0 26 18.5 42.5t45.5 16.5q29 0 47 -16.5t18 -42.5q0 -25 -18 -41.5t-47 -16.5q-26 0 -45 16.5t-19 41.5z" />
<glyph unicode="k" horiz-adv-x="886" d="M178 0v1520h62v-971l397 407h88l-412 -419l561 -537h-90l-544 520v-520h-62z" />
<glyph unicode="l" horiz-adv-x="417" d="M178 0v1520h62v-1520h-62z" />
<glyph unicode="m" horiz-adv-x="1894" d="M178 0v956h62v-211q26 81 84.5 135t126 75.5t143.5 21.5q137 0 234.5 -72t132.5 -205q17 79 58.5 136t96.5 86t109.5 42t113.5 13q170 0 281 -113t111 -301v-563h-62v563q0 161 -93.5 256.5t-236.5 95.5q-70 0 -130 -20t-111 -62t-81 -115t-32 -171v-547h-61v563 q0 161 -93.5 256.5t-236.5 95.5q-70 0 -130 -20t-111 -62t-81 -115t-32 -171v-547h-62z" />
<glyph unicode="n" horiz-adv-x="1148" d="M178 0v956h62v-211q26 81 84.5 135t126 75.5t143.5 21.5q170 0 280.5 -113t110.5 -301v-563h-61v563q0 161 -93.5 256.5t-236.5 95.5q-70 0 -130 -20t-111 -62t-81 -115t-32 -171v-547h-62z" />
<glyph unicode="o" horiz-adv-x="1216" d="M109 481q0 147 68 261.5t181 174.5t250 60t250 -60t181.5 -174.5t68.5 -261.5t-68.5 -263t-182 -177t-249.5 -61t-249.5 61t-181.5 177t-68 263zM170 481q0 -131 59.5 -232.5t159 -154.5t219.5 -53q185 0 312 121.5t127 318.5q0 129 -60 229.5t-159.5 152.5t-219.5 52 t-219.5 -52t-159 -152.5t-59.5 -229.5z" />
<glyph unicode="p" d="M178 -463v1419h62v-237q64 118 180.5 188t257.5 70q135 0 249.5 -66.5t181.5 -181.5t67 -252q0 -135 -67 -249.5t-181.5 -181t-249.5 -66.5q-141 0 -257.5 70t-180.5 188v-701h-62zM240 477q0 -117 59 -217.5t160 -159.5t219 -59q117 0 217.5 59t159.5 159.5t59 217.5 q0 118 -59 219t-159.5 160t-217.5 59q-177 0 -305.5 -122.5t-132.5 -296.5v-19z" />
<glyph unicode="q" d="M109 477q0 137 66.5 252t181 181.5t249.5 66.5q141 0 257.5 -70t180.5 -188v237h62v-1419h-62v701q-64 -118 -180.5 -188t-257.5 -70q-101 0 -193 39.5t-158.5 106t-106 158.5t-39.5 193zM170 477q0 -117 59 -217.5t159.5 -159.5t217.5 -59q118 0 219 59t160 159.5 t59 217.5v19q-8 176 -133.5 297.5t-304.5 121.5q-117 0 -217.5 -59t-159.5 -160t-59 -219z" />
<glyph unicode="r" horiz-adv-x="745" d="M178 0v956h62v-270q31 125 121 208t221 83q72 0 133 -19l-19 -59q-54 16 -114 16q-68 0 -122.5 -24.5t-90 -68.5t-61 -96t-39.5 -116t-20.5 -119t-8.5 -114v-377h-62z" />
<glyph unicode="s" horiz-adv-x="858" d="M92 223h62q72 -182 276 -182q122 0 193 57t71 150q0 149 -184 196l-143 33q-39 10 -69 21t-65 33.5t-57 52t-34 76.5q-8 30 -8 64q0 20 3 42q12 96 95.5 153.5t199.5 57.5q120 0 200.5 -63.5t90.5 -170.5h-64q-10 78 -72.5 125t-154.5 47t-157.5 -42t-75.5 -113 q-2 -15 -2 -29q1 -27 7 -51q10 -36 26.5 -58.5t44 -40.5t51.5 -27t55 -17l141 -33q234 -58 234 -256q0 -122 -88.5 -195t-237.5 -73q-124 0 -219 63t-119 180z" />
<glyph unicode="t" horiz-adv-x="583" d="M57 901v55h174v406h62v-406h237v-55h-237v-901h-62v901h-174z" />
<glyph unicode="u" horiz-adv-x="1148" d="M164 393v563h61v-563q0 -161 93.5 -256.5t236.5 -95.5q71 0 131 20t110 62.5t79.5 115.5t33.5 171v546h62v-956h-62v211q-26 -81 -84.5 -134.5t-126 -75t-143.5 -21.5q-170 0 -280.5 112.5t-110.5 300.5z" />
<glyph unicode="v" horiz-adv-x="1019" d="M63 956h68l377 -893l383 893h67l-409 -956h-80z" />
<glyph unicode="w" horiz-adv-x="1689" d="M66 956h65l336 -870l326 870h100l334 -866l327 866h66l-360 -956h-64l-354 915l-342 -915h-66z" />
<glyph unicode="x" horiz-adv-x="919" d="M39 0l383 530l-307 426h78l268 -372l266 372h78l-305 -426l381 -530h-78l-342 475l-344 -475h-78z" />
<glyph unicode="y" horiz-adv-x="1019" d="M63 956h68l377 -893l383 893h67l-409 -956l-199 -463h-67l190 453z" />
<glyph unicode="z" horiz-adv-x="956" d="M88 0v37l686 858h-686v61h780v-41l-682 -854h682v-61h-780z" />
<glyph unicode="{" horiz-adv-x="729" d="M88 453v53q60 17 98.5 68t38.5 114v367q0 110 52 196t137 131t186 45h45v-61h-45q-132 0 -222.5 -86t-90.5 -225v-367q0 -65 -30.5 -120t-82.5 -91q49 -37 81 -93t32 -114v-360q0 -139 90.5 -225t222.5 -86h45v-62h-45q-158 0 -266.5 103.5t-108.5 269.5v360 q0 63 -38.5 114.5t-98.5 68.5z" />
<glyph unicode="|" horiz-adv-x="454" d="M197 -264v1896h61v-1896h-61z" />
<glyph unicode="}" horiz-adv-x="729" d="M84 -401h45q132 0 222.5 86t90.5 225v360q0 58 32 114t81 93q-52 36 -82.5 91t-30.5 120v367q0 139 -90.5 225t-222.5 86h-45v61h45q101 0 186 -45t137 -131t52 -196v-367q0 -63 38.5 -114t98.5 -68v-53q-60 -17 -98.5 -68.5t-38.5 -114.5v-360q0 -166 -108.5 -269.5 t-266.5 -103.5h-45v62z" />
<glyph unicode="&#xa1;" horiz-adv-x="430" d="M152 922q0 25 18 41t45 16q29 0 47.5 -16t18.5 -41q0 -26 -18.5 -43t-47.5 -17q-27 0 -45 17t-18 43zM184 -463v1116h62v-1116h-62z" />
<glyph unicode="&#xa2;" horiz-adv-x="1064" d="M117 481q0 207 125 340t317 154v205h62v-203q155 -3 305 -103l-35 -49q-124 90 -277 90q-183 0 -309.5 -120.5t-126.5 -313.5q0 -195 126.5 -317.5t309.5 -122.5q151 0 277 90l37 -49q-132 -99 -307 -102v-224h-62v226q-191 18 -316.5 154.5t-125.5 344.5z" />
<glyph unicode="&#xa3;" horiz-adv-x="1290" d="M96 0v61h211v555h-174v58h174v389q0 110 57.5 198t148 133.5t194.5 45.5q152 0 259 -92t119 -244h-61q-12 125 -101.5 199.5t-215.5 74.5q-87 0 -163.5 -38.5t-125.5 -111.5t-49 -165v-389h247v-58h-247v-555h659q37 0 61.5 27t24.5 68v88h62v-88q0 -66 -43 -111 t-105 -45h-932z" />
<glyph unicode="&#xa4;" horiz-adv-x="1218" d="M164 309l155 154q-88 107 -87 245t92 244l-160 160l43 43l162 -162q103 86 238.5 84.5t238.5 -88.5l166 166l43 -43l-166 -166q86 -102 87.5 -237.5t-83.5 -239.5l164 -164l-43 -43l-164 164q-106 -91 -243.5 -92.5t-244.5 86.5l-155 -154zM292 706.5q0 -131.5 93 -221.5 q91 -90 218.5 -90t221.5 90q90 91 90 221t-90 220q-94 90 -221.5 90t-218.5 -90q-93 -88 -93 -219.5z" />
<glyph unicode="&#xa5;" horiz-adv-x="1259" d="M72 1411h73l484 -676l487 676h74l-531 -735v-119h338v-61h-338v-189h338v-61h-338v-246h-61v246h-338v61h338v189h-338v61h338v121z" />
<glyph unicode="&#xa6;" horiz-adv-x="462" d="M201 -264v731h61v-731h-61zM201 899v733h61v-733h-61z" />
<glyph unicode="&#xa7;" horiz-adv-x="1015" d="M147 -66l56 27q36 -77 113.5 -120.5t172.5 -43.5q134 0 227 88.5t93 227.5v286q0 143 -92.5 229.5t-227.5 86.5q-69 0 -133 -23v64q59 20 133 20q161 0 271 -104.5t110 -272.5v-286q0 -168 -110 -272.5t-271 -104.5q-111 0 -203 52.5t-139 145.5zM147 764v287 q0 168 110 272t271 104q111 0 203 -52.5t139 -145.5l-55 -27q-36 77 -114 120.5t-173 43.5q-134 0 -226.5 -88t-92.5 -227v-287q0 -143 92 -229t227 -86q73 0 134 22v-63q-62 -21 -134 -21q-161 0 -271 104.5t-110 272.5z" />
<glyph unicode="&#xa8;" horiz-adv-x="933" d="M246 1272q0 26 18 42.5t45 16.5q29 0 47.5 -16.5t18.5 -42.5q0 -25 -18.5 -41.5t-47.5 -16.5q-26 0 -44.5 16.5t-18.5 41.5zM559 1272q0 26 18.5 42.5t45.5 16.5q29 0 47 -16.5t18 -42.5q0 -25 -18 -41.5t-47 -16.5q-26 0 -45 16.5t-19 41.5z" />
<glyph unicode="&#xa9;" horiz-adv-x="1685" d="M127 702q0 147 56 281t151.5 231.5t228 155t279.5 57.5t280 -57.5t228.5 -155t152 -231.5t56.5 -281q0 -148 -56.5 -281.5t-152 -230t-228.5 -153.5t-280 -57t-279.5 57t-228 153.5t-151.5 230t-56 281.5zM188 702q0 -135 51.5 -257t138.5 -210.5t208.5 -141t255.5 -52.5 q179 0 330 88.5t238 240.5t87 332q0 181 -87 333.5t-238 241.5t-330 89t-330 -89t-237.5 -241.5t-86.5 -333.5zM506 702q0 151 100 257t246 106q135 0 229 -88l-41 -45q-75 72 -188 72q-119 0 -202 -88.5t-83 -213.5q0 -124 83 -211.5t202 -87.5q110 0 188 72l41 -47 q-99 -86 -229 -86q-145 0 -245.5 105.5t-100.5 254.5z" />
<glyph unicode="&#xaa;" horiz-adv-x="1001" d="M164 1051q0 135 96.5 231t231.5 96q85 0 155 -37t113 -104v127h61v-629h-61v127q-44 -65 -114 -102t-154 -37q-135 0 -231.5 96t-96.5 232zM186 555v59h625v-59h-625zM225 1051q0 -110 79 -189.5t188 -79.5t186 75t82 181v13q0 110 -79 188t-189 78q-109 0 -188 -78 t-79 -188z" />
<glyph unicode="&#xab;" horiz-adv-x="821" d="M113 475l282 424h74l-283 -424l285 -424h-76zM344 475l283 424h73l-282 -424l284 -424h-75z" />
<glyph unicode="&#xac;" horiz-adv-x="1339" d="M193 618v62h981v-408h-62v346h-919z" />
<glyph unicode="&#xad;" horiz-adv-x="972" d="M158 430v62h657v-62h-657z" />
<glyph unicode="&#xae;" horiz-adv-x="1685" d="M127 702q0 147 56 281t151.5 231.5t228 155t279.5 57.5t280 -57.5t228.5 -155t152 -231.5t56.5 -281q0 -148 -56.5 -281.5t-152 -230t-228.5 -153.5t-280 -57t-279.5 57t-228 153.5t-151.5 230t-56 281.5zM188 702q0 -135 51.5 -257t138.5 -210.5t208.5 -141t255.5 -52.5 q179 0 330 88.5t238 240.5t87 332q0 181 -87 333.5t-238 241.5t-330 89t-330 -89t-237.5 -241.5t-86.5 -333.5zM618 338v737h271q113 0 167 -69t54 -170q0 -93 -46 -159t-142 -77l170 -262h-70l-170 260h-172v-260h-62zM680 659h205q84 0 124 50.5t40 126.5q0 75 -39 126.5 t-121 51.5h-209v-355z" />
<glyph unicode="&#xaf;" horiz-adv-x="958" d="M246 1233v55h467v-55h-467z" />
<glyph unicode="&#xb0;" horiz-adv-x="724" d="M133 1198q0 97 67 163t162 66t162.5 -66t67.5 -163q0 -94 -68 -161.5t-162 -67.5t-161.5 67.5t-67.5 161.5zM195 1198q0 -69 49 -118.5t118 -49.5t118.5 49.5t49.5 118.5q0 71 -49 119.5t-119 48.5t-118.5 -48.5t-48.5 -119.5z" />
<glyph unicode="&#xb1;" horiz-adv-x="1134" d="M166 0v61h803v-61h-803zM166 500v61h371v336h61v-336h371v-61h-371v-340h-61v340h-371z" />
<glyph unicode="&#xb2;" horiz-adv-x="645" d="M74 1616q17 81 82.5 129.5t156.5 48.5q105 0 174.5 -63.5t69.5 -165.5q0 -103 -90 -207l-279 -330h371v-61h-479v22l342 410q74 88 74 166q0 74 -52 121t-131 47q-67 0 -118.5 -37t-63.5 -97z" />
<glyph unicode="&#xb3;" horiz-adv-x="663" d="M70 1096l49 32q51 -100 182 -110q87 -4 147 44t68 128q0 80 -54 132t-132 52h-80v60h80q58 0 103.5 39t49.5 98q5 66 -36 111t-123 51q-54 5 -104 -19t-73 -65l-51 30q33 56 96 87.5t136 27.5q112 -7 169.5 -73t49.5 -158q-4 -49 -35.5 -91t-81.5 -65q68 -17 110.5 -85.5 t37.5 -141.5q-8 -101 -89.5 -166t-191.5 -58q-81 5 -134 36t-93 104z" />
<glyph unicode="&#xb4;" horiz-adv-x="862" d="M264 1102l162 260h74l-181 -260h-55z" />
<glyph unicode="&#xb5;" horiz-adv-x="1148" d="M193 -283v1239h61v-563q0 -161 93.5 -256.5t236.5 -95.5q71 0 131 20t110 62.5t79.5 115.5t33.5 171v546h61v-956h-61v211q-26 -81 -84.5 -134.5t-126 -75t-143.5 -21.5q-107 0 -193.5 45.5t-136.5 130.5v-439h-61z" />
<glyph unicode="&#xb6;" horiz-adv-x="1216" d="M76 985q0 177 125 301.5t303 124.5h102v-1561h-61v707q-195 0 -332 125t-137 303zM545 -336h80q67 0 115 49.5t48 116.5v1581h103q101 0 173.5 -72.5t72.5 -175.5v-129h-62v129q0 78 -53 132.5t-131 54.5h-41v-1520q0 -91 -67 -159t-158 -68h-80v61z" />
<glyph unicode="&#xb7;" horiz-adv-x="444" d="M158 479q0 26 18 43t45 17q29 0 47.5 -17t18.5 -43q0 -25 -18.5 -41t-47.5 -16q-27 0 -45 16t-18 41z" />
<glyph unicode="&#xb8;" horiz-adv-x="1021" d="M328 -205h59q0 -29 12 -59v2q37 -78 111 -78q31 0 47 8q78 37 78 113q0 26 -12 53l-74 176h65l64 -153q31 -73 3 -143t-101 -99q-69 -29 -137 -0.5t-99 100.5q-16 43 -16 80z" />
<glyph unicode="&#xb9;" horiz-adv-x="385" d="M59 1645v61l203 74v-813h-61v727z" />
<glyph unicode="&#xba;" horiz-adv-x="991" d="M164 1051q0 148 95 237.5t235 89.5q138 0 233.5 -89.5t95.5 -237.5q0 -144 -96 -236t-233 -92q-138 0 -234 91.5t-96 236.5zM186 555v59h625v-59h-625zM225 1051q0 -120 78 -194.5t191 -74.5q112 0 190 74.5t78 194.5t-78 193t-190 73q-114 0 -191.5 -73t-77.5 -193z" />
<glyph unicode="&#xbb;" horiz-adv-x="821" d="M119 51l284 424l-282 424h74l282 -424l-282 -424h-76zM350 51l285 424l-283 424h74l283 -424l-283 -424h-76z" />
<glyph unicode="&#xbc;" horiz-adv-x="1507" d="M100 1221v61l203 74v-813h-61v727zM184 -20l918 1398h74l-918 -1398h-74zM803 176l444 641h45v-584h127v-57h-127v-176h-61v176h-428zM915 233h316v461z" />
<glyph unicode="&#xbd;" horiz-adv-x="1593" d="M100 1221v61l203 74v-813h-61v727zM184 -20l918 1398h74l-918 -1398h-74zM993 649q17 81 83 129.5t157 48.5q105 0 174.5 -63.5t69.5 -165.5t-91 -207l-278 -330h371v-61h-480v23l342 409q74 88 74 166q0 74 -51.5 121t-130.5 47q-67 0 -118.5 -36.5t-63.5 -96.5z" />
<glyph unicode="&#xbe;" horiz-adv-x="1736" d="M111 672l49 33q52 -101 182 -111q87 -4 147 44t68 128q0 80 -54 132t-132 52h-80v60h80q58 0 103.5 39t49.5 98q5 66 -36 111t-123 51q-54 5 -104 -19t-73 -65l-51 30q33 56 96 87.5t136 27.5q112 -7 169.5 -73t49.5 -158q-4 -49 -35.5 -91t-81.5 -65q68 -17 110 -85 t37 -142q-8 -101 -89 -166t-191 -58q-81 5 -134 36t-93 104zM414 -20l917 1398h74l-918 -1398h-73zM1032 176l445 641h45v-584h127v-57h-127v-176h-62v176h-428zM1145 233h315v461z" />
<glyph unicode="&#xbf;" horiz-adv-x="942" d="M80 -96q0 135 78.5 231t199.5 135q56 17 88.5 32t65.5 41t48 66.5t15 98.5v145h62v-145q0 -74 -18 -125.5t-56.5 -84t-79.5 -51t-106 -36.5q-103 -34 -169.5 -114t-66.5 -193q0 -138 100.5 -227t237.5 -89q127 0 216.5 76.5t101.5 204.5l61 -6q-12 -152 -120.5 -244 t-258.5 -92q-163 0 -281 105.5t-118 271.5zM541 922q0 25 18 41t47 16q27 0 45.5 -16.5t18.5 -40.5q0 -26 -18.5 -43t-45.5 -17q-29 0 -47 17t-18 43z" />
<glyph unicode="&#xc0;" horiz-adv-x="1265" d="M59 0l541 1411h66l538 -1411h-65l-150 393h-713l-151 -393h-66zM297 449h672l-336 876zM418 1817h74l161 -261h-55z" />
<glyph unicode="&#xc1;" horiz-adv-x="1265" d="M59 0l541 1411h66l538 -1411h-65l-150 393h-713l-151 -393h-66zM297 449h672l-336 876zM627 1556l161 261h74l-180 -261h-55z" />
<glyph unicode="&#xc2;" horiz-adv-x="1265" d="M59 0l541 1411h66l538 -1411h-65l-150 393h-713l-151 -393h-66zM297 449h672l-336 876zM356 1556l226 261h98l225 -261h-61l-213 224l-213 -224h-62z" />
<glyph unicode="&#xc3;" horiz-adv-x="1265" d="M59 0l541 1411h66l538 -1411h-65l-150 393h-713l-151 -393h-66zM297 449h672l-336 876zM393 1610q4 74 47 109.5t90 35.5q26 0 50 -9t34 -16t35 -26q46 -39 84 -39q28 0 51.5 22t24.5 68h61q-4 -74 -47 -109.5t-90 -35.5q-26 0 -48.5 7.5t-34.5 15.5t-34 24q-4 3 -14 11 t-14.5 11t-13 8t-14 7t-14 4t-16.5 2q-28 0 -51 -22t-24 -68h-62z" />
<glyph unicode="&#xc4;" horiz-adv-x="1265" d="M59 0l541 1411h66l538 -1411h-65l-150 393h-713l-151 -393h-66zM297 449h672l-336 876zM410 1726q0 26 18 43t45 17q29 0 47.5 -17t18.5 -43q0 -25 -18.5 -41t-47.5 -16q-27 0 -45 16t-18 41zM723 1726q0 26 18 43t45 17q29 0 47.5 -17t18.5 -43q0 -25 -18.5 -41 t-47.5 -16q-27 0 -45 16t-18 41z" />
<glyph unicode="&#xc5;" horiz-adv-x="1265" d="M59 0l541 1411h66l538 -1411h-65l-150 393h-713l-151 -393h-66zM297 449h672l-336 876zM463 1763q0 72 48.5 122t117.5 50q72 0 122 -50.5t50 -121.5q0 -72 -50 -120t-122 -48q-69 0 -117.5 48.5t-48.5 119.5zM518 1763q0 -47 32 -79.5t79 -32.5q49 0 82.5 32.5 t33.5 79.5q0 50 -33.5 83.5t-82.5 33.5q-47 0 -79 -33.5t-32 -83.5z" />
<glyph unicode="&#xc6;" horiz-adv-x="1996" d="M41 0l930 1411h887v-61h-705v-627h616v-61h-616v-601h729v-61h-790v399h-715l-262 -399h-74zM416 461h676v889h-91z" />
<glyph unicode="&#xc7;" horiz-adv-x="1347" d="M121 702q0 147 54 281t146.5 231.5t221.5 155t272 57.5q260 0 459 -176l-41 -45q-184 160 -418 160q-130 0 -247.5 -52.5t-202 -141.5t-134 -212t-49.5 -258t49.5 -257t134 -210.5t202 -141t247.5 -52.5q234 0 416 158l41 -45q-196 -174 -457 -174q-4 0 -10.5 1t-9.5 1 l51 -125q31 -73 3 -143t-101 -99q-69 -29 -137 -0.5t-99 100.5q-16 43 -16 80h59q0 -29 12 -59v2q37 -78 111 -78q31 0 47 8q78 37 78 113q0 26 -12 53l-64 152q-171 21 -309.5 120.5t-217.5 256t-79 339.5z" />
<glyph unicode="&#xc8;" horiz-adv-x="1122" d="M217 0v1411h766v-61h-704v-627h616v-61h-616v-601h729v-61h-791zM401 1817h74l162 -261h-55z" />
<glyph unicode="&#xc9;" horiz-adv-x="1122" d="M217 0v1411h766v-61h-704v-627h616v-61h-616v-601h729v-61h-791zM498 1556l161 261h74l-180 -261h-55z" />
<glyph unicode="&#xca;" horiz-adv-x="1122" d="M217 0v1411h766v-61h-704v-627h616v-61h-616v-601h729v-61h-791zM297 1556l225 261h99l225 -261h-62l-213 224l-213 -224h-61z" />
<glyph unicode="&#xcb;" horiz-adv-x="1122" d="M217 0v1411h766v-61h-704v-627h616v-61h-616v-601h729v-61h-791zM350 1726q0 26 18.5 43t45.5 17q29 0 47 -17t18 -43q0 -25 -18 -41t-47 -16q-27 0 -45.5 16.5t-18.5 40.5zM664 1726q0 26 18 43t45 17q29 0 47.5 -17t18.5 -43q0 -25 -18.5 -41t-47.5 -16q-27 0 -45 16 t-18 41z" />
<glyph unicode="&#xcc;" horiz-adv-x="495" d="M39 1817h74l161 -261h-55zM217 0v1411h62v-1411h-62z" />
<glyph unicode="&#xcd;" horiz-adv-x="495" d="M215 1556l162 261h74l-181 -261h-55zM217 0v1411h62v-1411h-62z" />
<glyph unicode="&#xce;" horiz-adv-x="495" d="M-27 1556l226 261h98l225 -261h-61l-213 224l-213 -224h-62zM217 0v1411h62v-1411h-62z" />
<glyph unicode="&#xcf;" horiz-adv-x="495" d="M27 1726q0 26 18 43t45 17q29 0 47.5 -17t18.5 -43q0 -25 -18.5 -41t-47.5 -16q-27 0 -45 16t-18 41zM217 0v1411h62v-1411h-62zM340 1726q0 26 18 43t45 17q29 0 47.5 -17t18.5 -43q0 -25 -18.5 -41t-47.5 -16q-27 0 -45 16t-18 41z" />
<glyph unicode="&#xd0;" horiz-adv-x="1486" d="M20 666v57h201v688h520q145 0 263 -54.5t195.5 -150t119 -224.5t41.5 -280q0 -202 -71.5 -359.5t-213 -250t-334.5 -92.5h-520v666h-201zM283 61h458q174 0 301.5 84.5t191.5 228.5t64 328q0 186 -64 331.5t-191.5 231t-301.5 85.5h-458v-627h395v-57h-395v-605z" />
<glyph unicode="&#xd1;" horiz-adv-x="1402" d="M217 0v1411h74l833 -1325v1325h62v-1411h-74l-833 1319v-1319h-62zM463 1610q4 74 47 109.5t90 35.5q26 0 50 -9t34 -16t35 -26q46 -39 84 -39q28 0 51.5 22t24.5 68h61q-4 -74 -47 -109.5t-90 -35.5q-26 0 -48.5 7.5t-34.5 15.5t-34 24q-4 3 -14 11t-14.5 11t-13 8 t-14 7t-14 4t-16.5 2q-28 0 -51.5 -22t-24.5 -68h-61z" />
<glyph unicode="&#xd2;" horiz-adv-x="1656" d="M119 702q0 197 93.5 363.5t256.5 264t358 97.5q147 0 279 -57.5t226.5 -155t150 -231.5t55.5 -281q0 -148 -55.5 -281.5t-150 -230t-226.5 -153.5t-279 -57q-146 0 -277.5 57t-226 153.5t-149.5 230t-55 281.5zM180 702q0 -135 50.5 -257t136.5 -210.5t206.5 -141 t253.5 -52.5q134 0 255 52.5t207.5 141t137 210.5t50.5 257q0 181 -85.5 333.5t-235.5 241.5t-329 89q-178 0 -327 -89t-234.5 -241.5t-85.5 -333.5zM616 1819h74l162 -260h-55z" />
<glyph unicode="&#xd3;" horiz-adv-x="1656" d="M119 702q0 197 93.5 363.5t256.5 264t358 97.5q147 0 279 -57.5t226.5 -155t150 -231.5t55.5 -281q0 -148 -55.5 -281.5t-150 -230t-226.5 -153.5t-279 -57q-146 0 -277.5 57t-226 153.5t-149.5 230t-55 281.5zM180 702q0 -135 50.5 -257t136.5 -210.5t206.5 -141 t253.5 -52.5q134 0 255 52.5t207.5 141t137 210.5t50.5 257q0 181 -85.5 333.5t-235.5 241.5t-329 89q-178 0 -327 -89t-234.5 -241.5t-85.5 -333.5zM782 1559l162 260h74l-180 -260h-56z" />
<glyph unicode="&#xd4;" horiz-adv-x="1656" d="M119 702q0 197 93.5 363.5t256.5 264t358 97.5q147 0 279 -57.5t226.5 -155t150 -231.5t55.5 -281q0 -148 -55.5 -281.5t-150 -230t-226.5 -153.5t-279 -57q-146 0 -277.5 57t-226 153.5t-149.5 230t-55 281.5zM180 702q0 -135 50.5 -257t136.5 -210.5t206.5 -141 t253.5 -52.5q134 0 255 52.5t207.5 141t137 210.5t50.5 257q0 181 -85.5 333.5t-235.5 241.5t-329 89q-178 0 -327 -89t-234.5 -241.5t-85.5 -333.5zM561 1559l225 260h99l225 -260h-61l-213 223l-213 -223h-62z" />
<glyph unicode="&#xd5;" horiz-adv-x="1656" d="M119 702q0 197 93.5 363.5t256.5 264t358 97.5q147 0 279 -57.5t226.5 -155t150 -231.5t55.5 -281q0 -148 -55.5 -281.5t-150 -230t-226.5 -153.5t-279 -57q-146 0 -277.5 57t-226 153.5t-149.5 230t-55 281.5zM180 702q0 -135 50.5 -257t136.5 -210.5t206.5 -141 t253.5 -52.5q134 0 255 52.5t207.5 141t137 210.5t50.5 257q0 181 -85.5 333.5t-235.5 241.5t-329 89q-178 0 -327 -89t-234.5 -241.5t-85.5 -333.5zM598 1612q4 74 47 109.5t90 35.5q26 0 50 -9t34 -16t35 -26q46 -39 84 -39q28 0 51.5 22t24.5 68h61q-4 -74 -47 -109.5 t-90 -35.5q-26 0 -48.5 7.5t-34.5 15.5t-34 24q-4 3 -14 11t-14.5 11t-13 8t-14 7t-14 4t-16.5 2q-28 0 -51.5 -22t-24.5 -68h-61z" />
<glyph unicode="&#xd6;" horiz-adv-x="1656" d="M119 702q0 197 93.5 363.5t256.5 264t358 97.5q147 0 279 -57.5t226.5 -155t150 -231.5t55.5 -281q0 -148 -55.5 -281.5t-150 -230t-226.5 -153.5t-279 -57q-146 0 -277.5 57t-226 153.5t-149.5 230t-55 281.5zM180 702q0 -135 50.5 -257t136.5 -210.5t206.5 -141 t253.5 -52.5q134 0 255 52.5t207.5 141t137 210.5t50.5 257q0 181 -85.5 333.5t-235.5 241.5t-329 89q-178 0 -327 -89t-234.5 -241.5t-85.5 -333.5zM614 1729q0 26 18.5 42.5t45.5 16.5q29 0 47 -16.5t18 -42.5q0 -25 -18 -41.5t-47 -16.5q-26 0 -45 16.5t-19 41.5z M928 1729q0 26 18 42.5t45 16.5q29 0 47.5 -16.5t18.5 -42.5q0 -25 -18.5 -41.5t-47.5 -16.5q-26 0 -44.5 16.5t-18.5 41.5z" />
<glyph unicode="&#xd7;" horiz-adv-x="937" d="M164 293l262 262l-260 260l43 43l260 -260l262 262l43 -43l-260 -262l262 -264l-43 -43l-264 262l-262 -260z" />
<glyph unicode="&#xd8;" horiz-adv-x="1654" d="M113 23l188 190q-184 210 -184 489q0 197 93.5 363.5t256.5 264t358 97.5q281 0 486 -192l190 192l43 -41l-192 -194q184 -210 184 -490q0 -148 -55.5 -281.5t-150 -230t-226.5 -153.5t-279 -57q-140 0 -263 49t-218 141l-188 -190zM178 702q0 -253 166 -446l922 934 q-186 176 -441 176q-178 0 -327 -89t-234.5 -241.5t-85.5 -333.5zM387 213q187 -172 438 -172q134 0 255 52.5t207.5 141t137 210.5t50.5 257q0 258 -166 445z" />
<glyph unicode="&#xd9;" horiz-adv-x="1380" d="M203 463v948h61v-948q0 -124 58 -221.5t155 -150t213 -52.5t213 52.5t155 150t58 221.5v948h62v-948q0 -143 -66.5 -255t-177.5 -171.5t-244 -59.5t-243.5 59.5t-177 171.5t-66.5 255zM494 1817h73l162 -261h-55z" />
<glyph unicode="&#xda;" horiz-adv-x="1380" d="M203 463v948h61v-948q0 -124 58 -221.5t155 -150t213 -52.5t213 52.5t155 150t58 221.5v948h62v-948q0 -143 -66.5 -255t-177.5 -171.5t-244 -59.5t-243.5 59.5t-177 171.5t-66.5 255zM631 1556l162 261h73l-180 -261h-55z" />
<glyph unicode="&#xdb;" horiz-adv-x="1380" d="M203 463v948h61v-948q0 -124 58 -221.5t155 -150t213 -52.5t213 52.5t155 150t58 221.5v948h62v-948q0 -143 -66.5 -255t-177.5 -171.5t-244 -59.5t-243.5 59.5t-177 171.5t-66.5 255zM416 1556l225 261h98l226 -261h-62l-213 224l-213 -224h-61z" />
<glyph unicode="&#xdc;" horiz-adv-x="1380" d="M203 463v948h61v-948q0 -124 58 -221.5t155 -150t213 -52.5t213 52.5t155 150t58 221.5v948h62v-948q0 -143 -66.5 -255t-177.5 -171.5t-244 -59.5t-243.5 59.5t-177 171.5t-66.5 255zM469 1726q0 26 18 43t45 17q29 0 47.5 -17t18.5 -43q0 -25 -18.5 -41t-47.5 -16 q-27 0 -45 16t-18 41zM782 1726q0 26 18.5 43t45.5 17q29 0 47 -17t18 -43q0 -25 -18 -41t-47 -16q-27 0 -45.5 16.5t-18.5 40.5z" />
<glyph unicode="&#xdd;" horiz-adv-x="1214" d="M49 1411h74l483 -676l488 676h73l-530 -735v-676h-62v678zM532 1556l162 261h74l-180 -261h-56z" />
<glyph unicode="&#xde;" horiz-adv-x="1159" d="M217 0v1411h62v-276h391q171 0 287 -113t116 -295q0 -185 -116 -300.5t-287 -115.5h-391v-311h-62zM279 373h391q145 0 243.5 98.5t98.5 255.5q0 155 -98 250.5t-244 95.5h-391v-700z" />
<glyph unicode="&#xdf;" horiz-adv-x="1656" d="M119 731h1358q-6 136 -59 254t-135.5 198t-190.5 128t-221 54.5t-231 -33.5t-216 -126l-39 45q108 96 239 139.5t257 36t246 -63t210.5 -146.5t145.5 -225.5t55 -289.5q0 -147 -55.5 -280t-149.5 -230t-226 -154.5t-278 -57.5q-151 0 -286 60t-230 161t-147.5 240 t-46.5 290zM180 676q5 -174 93 -320t235.5 -230.5t320.5 -84.5q175 0 321 84.5t232.5 230t94.5 320.5h-1297z" />
<glyph unicode="&#xe0;" d="M109 479q0 135 66.5 249.5t181 181.5t249.5 67q141 0 257.5 -70t180.5 -188v237h62v-956h-62v238q-64 -118 -180.5 -188t-257.5 -70q-135 0 -249.5 66t-181 181t-66.5 252zM170 479q0 -118 59 -219t159.5 -160t217.5 -59q179 0 304.5 121t133.5 299v18q0 117 -59 217.5 t-160 159.5t-219 59q-117 0 -217.5 -59t-159.5 -159.5t-59 -217.5zM414 1362h73l162 -260h-55z" />
<glyph unicode="&#xe1;" d="M109 479q0 135 66.5 249.5t181 181.5t249.5 67q141 0 257.5 -70t180.5 -188v237h62v-956h-62v238q-64 -118 -180.5 -188t-257.5 -70q-135 0 -249.5 66t-181 181t-66.5 252zM170 479q0 -118 59 -219t159.5 -160t217.5 -59q179 0 304.5 121t133.5 299v18q0 117 -59 217.5 t-160 159.5t-219 59q-117 0 -217.5 -59t-159.5 -159.5t-59 -217.5zM573 1102l162 260h74l-180 -260h-56z" />
<glyph unicode="&#xe2;" d="M109 479q0 135 66.5 249.5t181 181.5t249.5 67q141 0 257.5 -70t180.5 -188v237h62v-956h-62v238q-64 -118 -180.5 -188t-257.5 -70q-135 0 -249.5 66t-181 181t-66.5 252zM170 479q0 -118 59 -219t159.5 -160t217.5 -59q179 0 304.5 121t133.5 299v18q0 117 -59 217.5 t-160 159.5t-219 59q-117 0 -217.5 -59t-159.5 -159.5t-59 -217.5zM362 1102l226 260h98l225 -260h-61l-213 223l-213 -223h-62z" />
<glyph unicode="&#xe3;" d="M109 479q0 135 66.5 249.5t181 181.5t249.5 67q141 0 257.5 -70t180.5 -188v237h62v-956h-62v238q-64 -118 -180.5 -188t-257.5 -70q-135 0 -249.5 66t-181 181t-66.5 252zM170 479q0 -118 59 -219t159.5 -160t217.5 -59q179 0 304.5 121t133.5 299v18q0 117 -59 217.5 t-160 159.5t-219 59q-117 0 -217.5 -59t-159.5 -159.5t-59 -217.5zM399 1155q3 51 27.5 85.5t53 47t57.5 12.5q8 0 16 -1t14 -2t13.5 -3.5l12 -4t12 -6t10 -5.5t11 -7t9.5 -7t11 -8l9 -7q46 -39 84 -39q28 0 51.5 22t24.5 68h62q-3 -51 -27.5 -85.5t-53 -47t-57.5 -12.5 q-26 0 -48.5 7.5t-34 15t-33.5 24.5q-4 3 -14 11t-14.5 11t-13 8t-14 7t-14 4t-16.5 2q-28 0 -51.5 -22t-24.5 -68h-62z" />
<glyph unicode="&#xe4;" d="M109 479q0 135 66.5 249.5t181 181.5t249.5 67q141 0 257.5 -70t180.5 -188v237h62v-956h-62v238q-64 -118 -180.5 -188t-257.5 -70q-135 0 -249.5 66t-181 181t-66.5 252zM170 479q0 -118 59 -219t159.5 -160t217.5 -59q179 0 304.5 121t133.5 299v18q0 117 -59 217.5 t-160 159.5t-219 59q-117 0 -217.5 -59t-159.5 -159.5t-59 -217.5zM416 1272q0 26 18 42.5t45 16.5q29 0 47.5 -16.5t18.5 -42.5q0 -25 -18.5 -41.5t-47.5 -16.5q-26 0 -44.5 16.5t-18.5 41.5zM729 1272q0 26 18.5 42.5t45.5 16.5q29 0 47 -16.5t18 -42.5q0 -25 -18 -41.5 t-47 -16.5q-26 0 -45 16.5t-19 41.5z" />
<glyph unicode="&#xe5;" d="M109 479q0 135 66.5 249.5t181 181.5t249.5 67q141 0 257.5 -70t180.5 -188v237h62v-956h-62v238q-64 -118 -180.5 -188t-257.5 -70q-135 0 -249.5 66t-181 181t-66.5 252zM170 479q0 -118 59 -219t159.5 -160t217.5 -59q179 0 304.5 121t133.5 299v18q0 117 -59 217.5 t-160 159.5t-219 59q-117 0 -217.5 -59t-159.5 -159.5t-59 -217.5zM469 1309q0 72 48.5 122t117.5 50q72 0 122 -50.5t50 -121.5q0 -72 -50 -120t-122 -48q-69 0 -117.5 48.5t-48.5 119.5zM524 1309q0 -47 32 -80t79 -33q49 0 83 33t34 80q0 49 -33.5 82.5t-83.5 33.5 q-47 0 -79 -33.5t-32 -82.5z" />
<glyph unicode="&#xe6;" horiz-adv-x="2086" d="M109 479q0 135 66.5 249.5t181 181.5t249.5 67q141 0 257.5 -70t180.5 -188v237h62v-225q60 117 171 181.5t251 64.5q205 0 336 -136t131 -360v-26h-887q7 -185 128 -299.5t292 -114.5q115 0 208 51t150 144l53 -33q-67 -105 -174.5 -164t-236.5 -59q-140 0 -251 65 t-171 182v-227h-62v238q-64 -118 -180.5 -188t-257.5 -70q-135 0 -249.5 66t-181 181t-66.5 252zM170 479q0 -118 59 -219t159.5 -160t217.5 -59q179 0 304.5 121t133.5 299v18q0 117 -59 217.5t-160 159.5t-219 59q-117 0 -217.5 -59t-159.5 -159.5t-59 -217.5zM1108 510 h825q-7 184 -120 294.5t-285 110.5q-173 0 -290.5 -111t-129.5 -294z" />
<glyph unicode="&#xe7;" horiz-adv-x="1024" d="M111 481q0 147 68 261.5t180.5 174.5t248.5 60q168 0 312 -103l-35 -49q-124 90 -277 90q-183 0 -309.5 -120.5t-126.5 -313.5q0 -195 126.5 -317.5t309.5 -122.5q151 0 277 90l37 -49q-136 -102 -314 -102h-4l51 -123q31 -73 3 -143t-101 -99q-69 -29 -136.5 -0.5 t-98.5 100.5q-17 46 -17 80h60q0 -29 12 -59v2q37 -78 110 -78q32 0 48 8q77 36 77 113q0 26 -12 53l-63 152q-186 26 -306 159t-120 336z" />
<glyph unicode="&#xe8;" horiz-adv-x="1150" d="M111 481q0 148 64.5 262t173.5 174t243 60q205 0 336 -136t131 -360v-26h-887q7 -185 128 -299.5t292 -114.5q115 0 208 51t150 144l54 -33q-66 -105 -174 -164t-238 -59q-205 0 -343 139t-138 362zM172 510h825q-7 184 -120 294.5t-285 110.5q-173 0 -290.5 -111 t-129.5 -294zM385 1362h74l162 -260h-56z" />
<glyph unicode="&#xe9;" horiz-adv-x="1150" d="M111 481q0 148 64.5 262t173.5 174t243 60q205 0 336 -136t131 -360v-26h-887q7 -185 128 -299.5t292 -114.5q115 0 208 51t150 144l54 -33q-66 -105 -174 -164t-238 -59q-205 0 -343 139t-138 362zM172 510h825q-7 184 -120 294.5t-285 110.5q-173 0 -290.5 -111 t-129.5 -294zM541 1102l161 260h74l-180 -260h-55z" />
<glyph unicode="&#xea;" horiz-adv-x="1150" d="M111 481q0 148 64.5 262t173.5 174t243 60q205 0 336 -136t131 -360v-26h-887q7 -185 128 -299.5t292 -114.5q115 0 208 51t150 144l54 -33q-66 -105 -174 -164t-238 -59q-205 0 -343 139t-138 362zM172 510h825q-7 184 -120 294.5t-285 110.5q-173 0 -290.5 -111 t-129.5 -294zM309 1102l226 260h98l225 -260h-61l-213 223l-213 -223h-62z" />
<glyph unicode="&#xeb;" horiz-adv-x="1150" d="M111 481q0 148 64.5 262t173.5 174t243 60q205 0 336 -136t131 -360v-26h-887q7 -185 128 -299.5t292 -114.5q115 0 208 51t150 144l54 -33q-66 -105 -174 -164t-238 -59q-205 0 -343 139t-138 362zM172 510h825q-7 184 -120 294.5t-285 110.5q-173 0 -290.5 -111 t-129.5 -294zM362 1272q0 26 18.5 42.5t45.5 16.5q29 0 47.5 -16.5t18.5 -42.5q0 -25 -18.5 -41.5t-47.5 -16.5q-26 0 -45 16.5t-19 41.5zM676 1272q0 26 18 42.5t45 16.5q29 0 47.5 -16.5t18.5 -42.5q0 -25 -18.5 -41.5t-47.5 -16.5q-26 0 -44.5 16.5t-18.5 41.5z" />
<glyph unicode="&#xec;" horiz-adv-x="419" d="M6 1362h74l162 -260h-56zM178 0v956h64v-956h-64z" />
<glyph unicode="&#xed;" horiz-adv-x="419" d="M178 0v956h64v-956h-64zM178 1102l162 260h74l-181 -260h-55z" />
<glyph unicode="&#xee;" horiz-adv-x="419" d="M-74 1102l226 260h98l225 -260h-61l-213 223l-213 -223h-62zM178 0v956h64v-956h-64z" />
<glyph unicode="&#xef;" horiz-adv-x="419" d="M-20 1272q0 26 18 42.5t45 16.5q29 0 47.5 -16.5t18.5 -42.5q0 -25 -18.5 -41.5t-47.5 -16.5q-26 0 -44.5 16.5t-18.5 41.5zM178 0v956h64v-956h-64zM293 1272q0 26 18 42.5t45 16.5q29 0 47.5 -16.5t18.5 -42.5q0 -25 -18.5 -41.5t-47.5 -16.5q-26 0 -44.5 16.5 t-18.5 41.5z" />
<glyph unicode="&#xf0;" horiz-adv-x="1222" d="M109 481q0 110 40 204.5t106.5 157.5t154 98.5t182.5 35.5q133 0 223 -43l-285 350l-190 -123l-31 45l187 125l-148 189h76l125 -158l156 94l30 -41l-153 -96l436 -537q94 -121 94 -301q0 -148 -69 -264.5t-183 -178t-250 -61.5t-250 61.5t-182.5 178t-68.5 264.5z M172 481q0 -129 60 -230.5t159.5 -155.5t218.5 -54t219 54t160 156t60 230q0 131 -60.5 231t-159.5 151.5t-219 51.5t-219 -51.5t-159 -151.5t-60 -231z" />
<glyph unicode="&#xf1;" horiz-adv-x="1148" d="M178 0v956h62v-211q26 81 84.5 135t126 75.5t143.5 21.5q170 0 280.5 -113t110.5 -301v-563h-61v563q0 161 -93.5 256.5t-236.5 95.5q-70 0 -130 -20t-111 -62t-81 -115t-32 -171v-547h-62zM342 1155q4 74 47 109.5t90 35.5q26 0 50 -9t34 -16t35 -26q46 -39 84 -39 q28 0 51.5 22t24.5 68h61q-4 -74 -47 -109.5t-90 -35.5q-26 0 -48.5 7.5t-34.5 15.5t-34 24q-4 3 -14 11t-14.5 11t-13 8t-14 7t-14 4t-16.5 2q-28 0 -51.5 -22t-24.5 -68h-61z" />
<glyph unicode="&#xf2;" horiz-adv-x="1216" d="M109 481q0 147 68 261.5t181 174.5t250 60t250 -60t181.5 -174.5t68.5 -261.5t-68.5 -263t-182 -177t-249.5 -61t-249.5 61t-181.5 177t-68 263zM170 481q0 -131 59.5 -232.5t159 -154.5t219.5 -53q185 0 312 121.5t127 318.5q0 129 -60 229.5t-159.5 152.5t-219.5 52 t-219.5 -52t-159 -152.5t-59.5 -229.5zM414 1362h73l162 -260h-55z" />
<glyph unicode="&#xf3;" horiz-adv-x="1216" d="M109 481q0 147 68 261.5t181 174.5t250 60t250 -60t181.5 -174.5t68.5 -261.5t-68.5 -263t-182 -177t-249.5 -61t-249.5 61t-181.5 177t-68 263zM170 481q0 -131 59.5 -232.5t159 -154.5t219.5 -53q185 0 312 121.5t127 318.5q0 129 -60 229.5t-159.5 152.5t-219.5 52 t-219.5 -52t-159 -152.5t-59.5 -229.5zM561 1102l162 260h74l-181 -260h-55z" />
<glyph unicode="&#xf4;" horiz-adv-x="1216" d="M109 481q0 147 68 261.5t181 174.5t250 60t250 -60t181.5 -174.5t68.5 -261.5t-68.5 -263t-182 -177t-249.5 -61t-249.5 61t-181.5 177t-68 263zM170 481q0 -131 59.5 -232.5t159 -154.5t219.5 -53q185 0 312 121.5t127 318.5q0 129 -60 229.5t-159.5 152.5t-219.5 52 t-219.5 -52t-159 -152.5t-59.5 -229.5zM334 1102l225 260h98l226 -260h-62l-213 223l-213 -223h-61z" />
<glyph unicode="&#xf5;" horiz-adv-x="1216" d="M109 481q0 147 68 261.5t181 174.5t250 60t250 -60t181.5 -174.5t68.5 -261.5t-68.5 -263t-182 -177t-249.5 -61t-249.5 61t-181.5 177t-68 263zM170 481q0 -131 59.5 -232.5t159 -154.5t219.5 -53q185 0 312 121.5t127 318.5q0 129 -60 229.5t-159.5 152.5t-219.5 52 t-219.5 -52t-159 -152.5t-59.5 -229.5zM369 1155q4 74 47 109.5t90 35.5q26 0 50 -9t34 -16t35 -26q46 -39 84 -39q28 0 51 22t24 68h62q-4 -74 -47 -109.5t-90 -35.5q-26 0 -48.5 7.5t-34.5 15.5t-34 24q-4 3 -14 11t-14.5 11t-13 8t-14 7t-14 4t-16.5 2q-28 0 -51.5 -22 t-24.5 -68h-61z" />
<glyph unicode="&#xf6;" horiz-adv-x="1216" d="M109 481q0 147 68 261.5t181 174.5t250 60t250 -60t181.5 -174.5t68.5 -261.5t-68.5 -263t-182 -177t-249.5 -61t-249.5 61t-181.5 177t-68 263zM170 481q0 -131 59.5 -232.5t159 -154.5t219.5 -53q185 0 312 121.5t127 318.5q0 129 -60 229.5t-159.5 152.5t-219.5 52 t-219.5 -52t-159 -152.5t-59.5 -229.5zM387 1272q0 26 18.5 42.5t45.5 16.5q29 0 47 -16.5t18 -42.5q0 -25 -18 -41.5t-47 -16.5q-26 0 -45 16.5t-19 41.5zM700 1272q0 26 18.5 42.5t45.5 16.5q29 0 47 -16.5t18 -42.5q0 -25 -18 -41.5t-47 -16.5q-26 0 -45 16.5t-19 41.5z " />
<glyph unicode="&#xf7;" horiz-adv-x="1173" d="M166 428v61h842v-61h-842zM522 96q0 26 18.5 43t45.5 17q29 0 47 -17t18 -43q0 -25 -18 -41t-47 -16q-27 0 -45.5 16.5t-18.5 40.5zM522 811q0 26 18.5 42.5t45.5 16.5q29 0 47 -16.5t18 -42.5q0 -25 -18 -41t-47 -16q-27 0 -45.5 16.5t-18.5 40.5z" />
<glyph unicode="&#xf8;" horiz-adv-x="1216" d="M109 481q0 147 68 261.5t181 174.5t250 60q193 0 334 -119l121 123l43 -41l-121 -123q123 -136 123 -336q0 -147 -68.5 -263t-182 -177t-249.5 -61q-198 0 -336 120l-118 -120l-43 43l118 118q-120 139 -120 340zM170 481q0 -178 104 -295l623 629q-127 100 -289 100 q-120 0 -219.5 -52t-159 -152.5t-59.5 -229.5zM315 143q120 -102 293 -102q185 0 312 121.5t127 318.5q0 171 -107 291z" />
<glyph unicode="&#xf9;" horiz-adv-x="1148" d="M164 393v563h61v-563q0 -161 93.5 -256.5t236.5 -95.5q71 0 131 20t110 62.5t79.5 115.5t33.5 171v546h62v-956h-62v211q-26 -81 -84.5 -134.5t-126 -75t-143.5 -21.5q-170 0 -280.5 112.5t-110.5 300.5zM395 1362h74l162 -260h-56z" />
<glyph unicode="&#xfa;" horiz-adv-x="1148" d="M164 393v563h61v-563q0 -161 93.5 -256.5t236.5 -95.5q71 0 131 20t110 62.5t79.5 115.5t33.5 171v546h62v-956h-62v211q-26 -81 -84.5 -134.5t-126 -75t-143.5 -21.5q-170 0 -280.5 112.5t-110.5 300.5zM496 1102l161 260h74l-180 -260h-55z" />
<glyph unicode="&#xfb;" horiz-adv-x="1148" d="M164 393v563h61v-563q0 -161 93.5 -256.5t236.5 -95.5q71 0 131 20t110 62.5t79.5 115.5t33.5 171v546h62v-956h-62v211q-26 -81 -84.5 -134.5t-126 -75t-143.5 -21.5q-170 0 -280.5 112.5t-110.5 300.5zM293 1102l225 260h98l226 -260h-62l-213 223l-213 -223h-61z" />
<glyph unicode="&#xfc;" horiz-adv-x="1148" d="M164 393v563h61v-563q0 -161 93.5 -256.5t236.5 -95.5q71 0 131 20t110 62.5t79.5 115.5t33.5 171v546h62v-956h-62v211q-26 -81 -84.5 -134.5t-126 -75t-143.5 -21.5q-170 0 -280.5 112.5t-110.5 300.5zM348 1272q0 26 18.5 42.5t45.5 16.5q29 0 47 -16.5t18 -42.5 q0 -25 -18 -41.5t-47 -16.5q-26 0 -45 16.5t-19 41.5zM662 1272q0 26 18 42.5t45 16.5q29 0 47.5 -16.5t18.5 -42.5q0 -25 -18.5 -41.5t-47.5 -16.5q-26 0 -44.5 16.5t-18.5 41.5z" />
<glyph unicode="&#xfd;" horiz-adv-x="1019" d="M63 956h68l377 -893l383 893h67l-409 -956l-199 -463h-67l190 453zM430 1102l162 260h74l-181 -260h-55z" />
<glyph unicode="&#xfe;" d="M178 -463v1983h62v-801q64 118 180.5 188t257.5 70q135 0 249.5 -67t181.5 -181.5t67 -249.5q0 -208 -146 -353.5t-352 -145.5q-141 0 -257.5 70t-180.5 188v-701h-62zM240 461q3 -116 62.5 -212.5t159.5 -152t216 -55.5q117 0 217.5 59t159.5 160t59 219 q0 117 -59 217.5t-159.5 159.5t-217.5 59q-118 0 -219 -59t-160 -159.5t-59 -217.5v-18z" />
<glyph unicode="&#xff;" horiz-adv-x="1150" d="M109 473v27h886q-7 185 -128 299t-292 114q-115 0 -208 -50.5t-150 -143.5l-53 33q67 105 174.5 164t236.5 59q205 0 343.5 -139.5t138.5 -362.5q0 -148 -64.5 -262t-174 -174t-243.5 -60q-205 0 -335.5 135.5t-130.5 360.5zM170 444q7 -184 120 -294.5t285 -110.5 q173 0 290.5 111t129.5 294h-825z" />
<glyph unicode="&#x152;" horiz-adv-x="2383" d="M119 702q0 197 93.5 363.5t256.5 264t358 97.5q217 0 392 -119t260 -313v416h766v-61h-705v-627h617v-61h-617v-601h729v-61h-790v410q-83 -195 -258.5 -312.5t-393.5 -117.5q-146 0 -277.5 57t-226 153.5t-149.5 230t-55 281.5zM180 702q0 -135 50.5 -257t136.5 -210.5 t206.5 -141t253.5 -52.5q134 0 255 52.5t207.5 141t137 210.5t50.5 257q0 181 -85.5 333.5t-235.5 241.5t-329 89q-178 0 -327 -89t-234.5 -241.5t-85.5 -333.5z" />
<glyph unicode="&#x153;" horiz-adv-x="2086" d="M109 481q0 147 68 261.5t181 174.5t250 60q160 0 287 -83.5t180 -229.5q51 147 172.5 230t280.5 83q205 0 336 -136t131 -360v-26h-887q7 -185 128 -299.5t292 -114.5q115 0 208 51t150 144l53 -33q-67 -105 -174.5 -164t-236.5 -59q-159 0 -280.5 84t-172.5 231 q-53 -146 -180 -230.5t-287 -84.5q-136 0 -249.5 61t-181.5 177t-68 263zM170 481q0 -131 59.5 -232.5t159 -154.5t219.5 -53q181 0 306.5 116t132.5 304v20v19q-5 125 -65.5 220.5t-158 145t-215.5 49.5q-120 0 -219.5 -52t-159 -152.5t-59.5 -229.5zM1108 510h825 q-7 184 -120 294.5t-285 110.5q-173 0 -290.5 -111t-129.5 -294z" />
<glyph unicode="&#x178;" horiz-adv-x="1214" d="M49 1411h74l483 -676l488 676h73l-530 -735v-676h-62v678zM387 1726q0 26 18.5 43t45.5 17q29 0 47 -17t18 -43q0 -25 -18 -41t-47 -16q-27 0 -45.5 16.5t-18.5 40.5zM700 1726q0 26 18.5 43t45.5 17q29 0 47 -17t18 -43q0 -25 -18 -41t-47 -16q-27 0 -45.5 16.5 t-18.5 40.5z" />
<glyph unicode="&#x2c6;" horiz-adv-x="978" d="M215 1102l225 260h99l225 -260h-62l-213 223l-213 -223h-61z" />
<glyph unicode="&#x2dc;" horiz-adv-x="968" d="M246 1155q4 74 47 109.5t90 35.5q26 0 50 -9t34 -16t35 -26q46 -39 84 -39q28 0 51.5 22t24.5 68h61q-4 -74 -47 -109.5t-90 -35.5q-26 0 -48.5 7.5t-34.5 15.5t-34 24q-4 3 -14 11t-14.5 11t-13 8t-14 7t-14 4t-16.5 2q-28 0 -51.5 -22t-24.5 -68h-61z" />
<glyph unicode="&#x2000;" horiz-adv-x="967" />
<glyph unicode="&#x2001;" horiz-adv-x="1935" />
<glyph unicode="&#x2002;" horiz-adv-x="967" />
<glyph unicode="&#x2003;" horiz-adv-x="1935" />
<glyph unicode="&#x2004;" horiz-adv-x="645" />
<glyph unicode="&#x2005;" horiz-adv-x="483" />
<glyph unicode="&#x2006;" horiz-adv-x="322" />
<glyph unicode="&#x2007;" horiz-adv-x="322" />
<glyph unicode="&#x2008;" horiz-adv-x="241" />
<glyph unicode="&#x2009;" horiz-adv-x="387" />
<glyph unicode="&#x200a;" horiz-adv-x="107" />
<glyph unicode="&#x2010;" horiz-adv-x="972" d="M158 430v62h657v-62h-657z" />
<glyph unicode="&#x2011;" horiz-adv-x="972" d="M158 430v62h657v-62h-657z" />
<glyph unicode="&#x2012;" horiz-adv-x="972" d="M158 430v62h657v-62h-657z" />
<glyph unicode="&#x2013;" horiz-adv-x="1210" d="M158 422v61h895v-61h-895z" />
<glyph unicode="&#x2014;" horiz-adv-x="1622" d="M158 422v61h1306v-61h-1306z" />
<glyph unicode="&#x2018;" horiz-adv-x="438" d="M152 1020q-4 128 31 223t100 187l47 -19q-125 -176 -117 -391h-61z" />
<glyph unicode="&#x2019;" horiz-adv-x="440" d="M127 1020q125 176 117 391h61q1 -129 -33 -225t-98 -185z" />
<glyph unicode="&#x201a;" horiz-adv-x="428" d="M74 -158q124 174 116 391h62q1 -129 -33 -224t-98 -185z" />
<glyph unicode="&#x201c;" horiz-adv-x="630" d="M152 1020q-4 128 31 223t100 187l47 -19q-125 -176 -117 -391h-61zM344 1020q-4 128 31 223t100 187l47 -19q-124 -174 -116 -391h-62z" />
<glyph unicode="&#x201d;" horiz-adv-x="632" d="M127 1020q125 176 117 391h61q1 -129 -33 -225t-98 -185zM319 1020q125 176 117 391h62q1 -129 -33 -225t-98 -185z" />
<glyph unicode="&#x201e;" horiz-adv-x="620" d="M74 -158q124 174 116 391h62q1 -129 -33 -224t-98 -185zM266 -158q125 176 117 391h61q1 -129 -33 -224t-98 -185z" />
<glyph unicode="&#x2022;" horiz-adv-x="862" d="M193 477q0 96 69 160.5t168 64.5t169.5 -64.5t70.5 -160.5t-70.5 -160.5t-169.5 -64.5t-168 64.5t-69 160.5z" />
<glyph unicode="&#x2026;" horiz-adv-x="1236" d="M158 37q0 26 18 42.5t45 16.5q29 0 47.5 -16.5t18.5 -42.5q0 -25 -18.5 -41t-47.5 -16q-27 0 -45 16t-18 41zM553 37q0 26 18 42.5t45 16.5q29 0 47.5 -16.5t18.5 -42.5q0 -25 -18.5 -41t-47.5 -16q-27 0 -45 16t-18 41zM948 37q0 26 18.5 42.5t45.5 16.5q29 0 47 -16.5 t18 -42.5q0 -25 -18 -41t-47 -16q-27 0 -45.5 16.5t-18.5 40.5z" />
<glyph unicode="&#x202f;" horiz-adv-x="387" />
<glyph unicode="&#x2039;" horiz-adv-x="589" d="M113 475l282 424h74l-283 -424l285 -424h-76z" />
<glyph unicode="&#x203a;" horiz-adv-x="589" d="M119 51l284 424l-282 424h74l282 -424l-282 -424h-76z" />
<glyph unicode="&#x205f;" horiz-adv-x="483" />
<glyph unicode="&#x20ac;" horiz-adv-x="1611" d="M113 580v57h913v-57h-649q42 -233 216 -386t406 -153q234 0 416 158l41 -45q-196 -174 -457 -174q-128 0 -245 46t-206.5 125.5t-151 190.5t-81.5 238h-202zM113 774v57h202q42 257 235 426.5t449 169.5q260 0 459 -176l-41 -45q-184 160 -418 160q-230 0 -406 -153 t-216 -382h649v-57h-913z" />
<glyph unicode="&#x2122;" horiz-adv-x="1775" d="M131 1350v61h664l342 -657l342 657h37l102 -805h-59l-86 682l-314 -612h-45l-315 612l-84 -682h-62l97 744h-299v-744h-62v744h-258z" />
<glyph unicode="&#x25fc;" horiz-adv-x="952" d="M0 0v952h952v-952h-952z" />
</font>
</defs>
</svg>
